<svg xmlns="http://www.w3.org/2000/svg" width="1366" height="769" viewBox="0 0 1366 769"><defs><mask id="q0lmb" width="2.01" height="2.01" x="-1" y="-1.01"><path fill="#fff" d="M-501-10h2348v1401H-501z"/><path d="M673 1381c642.86 0 1164-309.147 1164-690.5S1315.86 0 673 0-491 309.147-491 690.5 30.14 1381 673 1381z"/></mask><filter id="q0lma" width="2408" height="1461" x="-531" y="-40" filterUnits="userSpaceOnUse"><feOffset in="SourceGraphic" result="FeOffset1536Out"/><feGaussianBlur in="FeOffset1536Out" result="FeGaussianBlur1537Out" stdDeviation="8 8"/></filter><linearGradient id="q0lmc" x1="1480.48" x2="21.68" y1="1190.06" y2="331.03" gradientUnits="userSpaceOnUse"><stop offset="0" stop-color="#273f97"/><stop offset="1" stop-color="#2481de"/></linearGradient><mask id="q0lme" width="2.01" height="2.01" x="-1" y="-1.01"><path fill="#fff" d="M-501 68h2348v1401H-501z"/><path d="M673 1459c642.86 0 1164-309.147 1164-690.5S1315.86 78 673 78-491 387.147-491 768.5 30.14 1459 673 1459z"/></mask><filter id="q0lmd" width="2408" height="1461" x="-531" y="38" filterUnits="userSpaceOnUse"><feOffset in="SourceGraphic" result="FeOffset1555Out"/><feGaussianBlur in="FeOffset1555Out" result="FeGaussianBlur1556Out" stdDeviation="8 8"/></filter><linearGradient id="q0lmf" x1="1480.48" x2="21.68" y1="1268.06" y2="409.03" gradientUnits="userSpaceOnUse"><stop offset="0" stop-color="#273f97"/><stop offset="1" stop-color="#2481de"/></linearGradient></defs><g><g><g><g filter="url(#q0lma)"><path fill="none" stroke="#000" stroke-opacity=".1" stroke-width="20" d="M673 1381c642.86 0 1164-309.147 1164-690.5S1315.86 0 673 0-491 309.147-491 690.5 30.14 1381 673 1381z" mask="url(&quot;#q0lmb&quot;)"/><path fill-opacity=".1" d="M673 1381c642.86 0 1164-309.147 1164-690.5S1315.86 0 673 0-491 309.147-491 690.5 30.14 1381 673 1381z"/></g><path fill="url(#q0lmc)" d="M673 1381c642.86 0 1164-309.147 1164-690.5S1315.86 0 673 0-491 309.147-491 690.5 30.14 1381 673 1381z"/></g><g><g filter="url(#q0lmd)"><path fill="none" stroke="#000" stroke-opacity=".1" stroke-width="20" d="M673 1459c642.86 0 1164-309.147 1164-690.5S1315.86 78 673 78-491 387.147-491 768.5 30.14 1459 673 1459z" mask="url(&quot;#q0lme&quot;)"/><path fill-opacity=".1" d="M673 1459c642.86 0 1164-309.147 1164-690.5S1315.86 78 673 78-491 387.147-491 768.5 30.14 1459 673 1459z"/></g><path fill="url(#q0lmf)" d="M673 1459c642.86 0 1164-309.147 1164-690.5S1315.86 78 673 78-491 387.147-491 768.5 30.14 1459 673 1459z"/></g></g></g></svg>