<svg xmlns="http://www.w3.org/2000/svg" width="50" height="50" viewBox="0 0 50 50"><defs><linearGradient id="slfwa" x1="0" x2="50" y1="50" y2="0" gradientUnits="userSpaceOnUse"><stop offset="0" stop-color="#4696dc"/><stop offset="1" stop-color="#82dae0"/></linearGradient></defs><g><g><path fill="url(#slfwa)" d="M31.74 18.508L18.5 31.743a.871.871 0 0 1-.62.257.885.885 0 0 1-.62-1.508l13.24-13.235a.877.877 0 0 1 1.24 0 .884.884 0 0 1 0 1.25zm1.322 6.972a5.08 5.08 0 0 1 .001 7.14 4.967 4.967 0 0 1-3.548 1.48 4.97 4.97 0 0 1-3.547-1.48 5.037 5.037 0 0 1-1.468-3.57c0-1.347.522-2.616 1.467-3.57A4.966 4.966 0 0 1 29.514 24c1.34 0 2.601.526 3.548 1.48zm-5.675 1.41a3.038 3.038 0 0 0-.887 2.16c0 .82.314 1.583.887 2.16.572.576 1.323.89 2.128.89.806 0 1.557-.314 2.128-.89a3.08 3.08 0 0 0 0-4.321A2.97 2.97 0 0 0 29.514 26c-.805 0-1.556.313-2.127.89zm-4.047-3.37A4.966 4.966 0 0 1 19.792 25a4.975 4.975 0 0 1-3.549-1.48 5.082 5.082 0 0 1 0-7.14 4.967 4.967 0 0 1 3.548-1.48c1.342 0 2.603.526 3.549 1.48a5.08 5.08 0 0 1 0 7.14zm-1.42-1.409a3.08 3.08 0 0 0 0-4.322 2.964 2.964 0 0 0-2.129-.889c-.807 0-1.557.313-2.128.888a3.082 3.082 0 0 0 0 4.323 2.974 2.974 0 0 0 2.129.889c.807 0 1.557-.313 2.128-.889zm23.859 7.217l1.994 7.856a1.869 1.869 0 0 1-1.306 2.259l-7.789 2.198-3.514 7.299a1.872 1.872 0 0 1-2.458.893l-7.376-3.328-7.375 3.328a1.87 1.87 0 0 1-2.458-.893l-3.515-7.299-7.79-2.198a1.87 1.87 0 0 1-1.305-2.26l1.994-7.855L.324 22.63a1.87 1.87 0 0 1 .453-2.569l6.57-4.733.809-8.065a1.867 1.867 0 0 1 2.002-1.678l8.069.602L24.022.532a1.875 1.875 0 0 1 2.616 0l5.795 5.655 8.067-.602a1.868 1.868 0 0 1 2.003 1.677l.81 8.066 6.57 4.733c.547.395-.82 3.484-4.104 9.267zm-2.137-.287l.397-.7c1.612-2.839 2.748-5.005 3.4-6.477.143-.323.26-.606.35-.846l-6.376-4.594-.09-.896-.797-7.94-8.844.661-.646-.63-5.706-5.57-6.352 6.2-.9-.067-7.945-.593-.887 8.835-.73.527-6.467 4.659 4.992 7.338-.221.873-1.964 7.731 8.537 2.41.391.812 3.46 7.185 8.086-3.648.823.37 7.263 3.278 3.852-7.998.867-.245 7.668-2.164z"/></g></g></svg>