<svg xmlns="http://www.w3.org/2000/svg" width="50" height="50" viewBox="0 0 50 50"><defs><linearGradient id="dx8ja" x1="0" x2="50" y1="50" y2="0" gradientUnits="userSpaceOnUse"><stop offset="0" stop-color="#4696dc"/><stop offset="1" stop-color="#82dae0"/></linearGradient></defs><g><g><g><path fill="url(#dx8ja)" d="M47.117 18.071h-8.255a.824.824 0 0 0-.711.415.864.864 0 0 0-.017.838c.458.864.7 1.84.7 2.826 0 2.108-1.11 4.077-2.897 5.137a.832.832 0 0 1-1.133-.309.86.86 0 0 1 .301-1.158 4.278 4.278 0 0 0 2.072-3.67c0-2.338-1.857-4.24-4.141-4.24s-4.141 1.902-4.141 4.24c0 .455.08.897.217 1.319-.493.313-.951.679-1.358 1.098a6.01 6.01 0 0 1-.515-2.417c0-.702.127-1.403.377-2.084a.869.869 0 0 0-.095-.78.823.823 0 0 0-.68-.367H12.328V9.59h34.788a.84.84 0 0 1 .828.848.84.84 0 0 1-.828.848h-7.455v1.697h7.455a.84.84 0 0 1 .828.848.84.84 0 0 1-.828.848h-7.455v1.697h7.455a.84.84 0 0 1 .828.848.84.84 0 0 1-.828.848zm-16.03 7.566c.402.26.54.84.306 1.29-.232.45-.749.604-1.149.343a6.082 6.082 0 0 1-1.477-1.386c.37-.474.798-.888 1.273-1.226.298.38.646.718 1.047.98zm-.265-3.542c0-1.23 1.078-2.232 2.402-2.232 1.325 0 2.402 1.001 2.402 2.232 0 .173-.03.342-.073.508a7.656 7.656 0 0 0-2.329-.366 7.66 7.66 0 0 0-2.328.365 2.037 2.037 0 0 1-.074-.507zm-3.425 9.422V29.84c0-.853.187-1.663.513-2.395.46.468.983.88 1.563 1.218a2.489 2.489 0 0 0 3.41-.916c.69-1.2.283-2.74-.908-3.437-.072-.041-.126-.102-.193-.15a5.77 5.77 0 0 1 1.437-.187c.492 0 .972.067 1.439.187-.067.048-.123.11-.195.151a2.529 2.529 0 0 0-.908 3.437 2.501 2.501 0 0 0 2.16 1.255c.438 0 .87-.117 1.25-.34a7.494 7.494 0 0 0 1.555-1.208 5.84 5.84 0 0 1 .521 2.385v1.677zm13.699 16.438l.821-8.914 1.234 8.914zm-2.18.675H23.973l1.495-15.068H40.41zM18.493 31.507H2.055V1.37h13.972c1.36 0 2.466 1.127 2.466 2.511v4.186H12.74V6.393h-1.644v15.905h1.644v-1.674h5.753zm-2.466 6.164H2.055v-4.11h16.438v1.644a2.469 2.469 0 0 1-2.466 2.466zm-9.863 7.544H1.37v-6.174H4.17zm3.187 2.73H2.055v-1.37h9.589c-.335.798-1.236 1.37-2.293 1.37zM47.5 8.333H20V4.167A4.171 4.171 0 0 0 15.833 0h-15A.833.833 0 0 0 0 .833v48.334c0 .46.373.833.833.833h8.334a4.171 4.171 0 0 0 4.166-4.167A.833.833 0 0 0 12.5 45H8.1l-1.944-5.833h9.677A4.171 4.171 0 0 0 20 35V20.833h5.99a7.355 7.355 0 0 0-.157 1.508 7.48 7.48 0 0 0 1.065 3.827A7.448 7.448 0 0 0 25.833 30v1.667H25a.833.833 0 0 0-.83.75l-1.666 16.666a.834.834 0 0 0 .83.917h20.833a.835.835 0 0 0 .824-.957l-2.5-16.667-.018.002a.822.822 0 0 0-.189-.438.836.836 0 0 0-.617-.273h-.834V30a7.523 7.523 0 0 0-1.061-3.835 7.475 7.475 0 0 0 1.061-3.824c0-.796-.127-1.588-.375-2.341H47.5c1.378 0 2.5-1.122 2.5-2.5 0-.642-.25-1.223-.65-1.667.4-.443.65-1.024.65-1.666 0-.643-.25-1.224-.65-1.667.4-.443.65-1.024.65-1.667 0-1.378-1.122-2.5-2.5-2.5z"/></g></g></g></svg>