<svg xmlns="http://www.w3.org/2000/svg" width="50" height="50" viewBox="0 0 50 50"><defs><linearGradient id="dtl3a" x1="0" x2="50" y1="49.85" y2="0" gradientUnits="userSpaceOnUse"><stop offset="0" stop-color="#4696dc"/><stop offset="1" stop-color="#82dae0"/></linearGradient></defs><g><g><g><path fill="url(#dtl3a)" d="M17.02 46.02c-.402-.473-.4-1.237.004-1.707s1.056-.468 1.457.005c1.683 1.985 4.167 3.114 6.82 3.114 2.652 0 5.137-1.13 6.82-3.113.4-.474 1.054-.476 1.457-.006.404.47.406 1.234.005 1.708a10.84 10.84 0 0 1-8.282 3.826 10.837 10.837 0 0 1-8.282-3.826zM5.16 17.7c-.401-.472-.4-1.237.004-1.707s1.057-.468 1.458.005c1.682 1.985 4.167 3.114 6.82 3.114 2.652 0 5.137-1.13 6.82-3.113.4-.474 1.053-.476 1.457-.006.404.47.406 1.235.005 1.708a10.84 10.84 0 0 1-8.282 3.826 10.839 10.839 0 0 1-8.282-3.826zm23.116 0c-.4-.472-.399-1.237.005-1.707.403-.47 1.057-.468 1.457.005 1.683 1.985 4.168 3.114 6.82 3.114s5.137-1.13 6.82-3.113c.401-.473 1.053-.476 1.458-.005.403.47.405 1.234.004 1.707a10.841 10.841 0 0 1-8.282 3.826 10.84 10.84 0 0 1-8.282-3.826zM.46 10.014c-.474-.37-.603-1.12-.287-1.676 1.205-2.124 3.753-4.566 6.31-6.03C8.822.967 11.436.169 14.038.004c.572-.04 1.054.47 1.085 1.14.03.668-.405 1.237-.973 1.273-2.331.15-4.669.862-6.764 2.062-2.194 1.257-4.489 3.418-5.498 5.197-.194.341-.516.54-.86.54a.92.92 0 0 1-.57-.203zm47.651-.347c-1.01-1.777-3.305-3.936-5.498-5.191-2.095-1.2-4.433-1.911-6.764-2.06-.569-.036-1.004-.605-.973-1.271.03-.667.524-1.187 1.075-1.141 2.612.166 5.227.962 7.567 2.301 2.557 1.464 5.105 3.904 6.309 6.025.316.555.187 1.305-.287 1.674a.921.921 0 0 1-.57.203c-.343 0-.665-.198-.859-.54z"/></g></g></g></svg>