<svg xmlns="http://www.w3.org/2000/svg" width="42" height="50" viewBox="0 0 42 50"><defs><linearGradient id="fcbxa" x1=".34" x2="41.65" y1="50" y2="0" gradientUnits="userSpaceOnUse"><stop offset="0" stop-color="#4696dc"/><stop offset="1" stop-color="#82dae0"/></linearGradient></defs><g><g><path fill="url(#fcbxa)" d="M.34 44.167V.833C.34.373.71 0 1.166 0h39.66a.83.83 0 0 1 .825.833v43.334a.83.83 0 0 1-.826.833h-2.319l1.441 3.874a.84.84 0 0 1-.095.768.824.824 0 0 1-.68.358h-4.957a.827.827 0 0 1-.774-.543l-1.704-4.584-1.705 4.586a.827.827 0 0 1-.774.541h-4.957a.824.824 0 0 1-.68-.358.84.84 0 0 1-.095-.768L24.967 45h-23.8a.83.83 0 0 1-.827-.833zm31.139-3.347a6.531 6.531 0 0 1-2.897-.796l-3.09 8.31h3.193zm.258-1.653c2.738 0 4.957-2.239 4.957-5 0-2.762-2.22-5-4.957-5-2.738 0-4.958 2.238-4.958 5 .003 2.76 2.221 4.997 4.958 5zm6.244 9.166l-3.09-8.309a6.558 6.558 0 0 1-1.578.61L32.62 42.5l2.169 5.833zm-35.989-5h23.595L27.198 39a6.707 6.707 0 0 1-1.603-7.31 6.61 6.61 0 0 1 6.142-4.203 6.61 6.61 0 0 1 6.142 4.203c1 2.538.365 5.435-1.604 7.31l1.611 4.333H40V1.667H1.992zm21.07-8.835a.814.814 0 0 1-.82.807 3.191 3.191 0 0 1-1.528-.356l-.031-.015c-.603.528-1.166 1.1-1.685 1.708-.807.9-2.015 2.045-3.175 1.615-1.1-.41-1.155-1.862-1.155-2.15a.82.82 0 0 1 .015-.155c.126-.48.097-.988-.082-1.452-.014-.002-.596-.132-2.443 1.413a6.02 6.02 0 0 1-2.788 1.444c-.328.709-.714 1.49-1.167 2.348a.827.827 0 0 1-1.106.345.801.801 0 0 1-.35-1.089c.313-.59.61-1.189.882-1.775l-.082-.036a3.12 3.12 0 0 1-1.691-2.986 4.026 4.026 0 0 1 2.552-3.637c1.16-.485 1.803-.16 2.14.197.498.527.722 1.765-.322 4.59a6.75 6.75 0 0 0 .866-.624c1.239-1.035 3.037-2.321 4.337-1.573 1.19.686.974 2.506.876 3.058.009.185.047.368.113.542.529-.278.989-.667 1.348-1.14 1.832-2.041 2.47-2.661 3.675-2.076.244.134.521.2.8.19.453 0 .82.361.82.807zm-14.778 1.21c.593-1.19.957-2.477 1.073-3.798a1.9 1.9 0 0 0-.304.102A2.407 2.407 0 0 0 7.5 34.197c-.062.6.232 1.183.755 1.499zm16.154-8.947c0 .389-.364.704-.813.704H16.3c-.45 0-.813-.315-.813-.704 0-.39.364-.705.813-.705h7.324c.449 0 .813.316.813.705zm-11.114-.705c.434 0 .787.316.787.705 0 .388-.353.704-.787.704H9.389c-.434 0-.787-.316-.787-.704 0-.39.353-.705.787-.705zm21.442-4.225c0 .389-.374.704-.836.704H23.897c-.461 0-.836-.315-.836-.704 0-.389.375-.704.836-.704H33.93c.462 0 .836.315.836.704zm-14.588.704H8.731c-.451 0-.817-.315-.817-.704 0-.389.366-.704.817-.704h11.447c.452 0 .818.315.818.704 0 .389-.366.704-.818.704zm14.588-4.225c0 .389-.373.704-.833.704h-14.17c-.46 0-.833-.315-.833-.704 0-.39.373-.704.834-.704h14.169c.46 0 .833.315.833.704zm-26.852 0c0-.39.364-.704.813-.704h7.324c.45 0 .814.315.814.704 0 .389-.365.704-.814.704H8.727c-.449 0-.813-.315-.813-.704zm26.852-4.225c0 .388-.366.704-.817.704H9.419c-.45 0-.817-.316-.817-.704 0-.39.366-.705.818-.705h24.529c.451 0 .817.316.817.705zm0-3.522c0 .39-.36.705-.803.705H25.93c-.443 0-.803-.316-.803-.705 0-.389.36-.704.803-.704h8.033c.444 0 .803.315.803.704zm-26.852 0c0-.389.377-.704.841-.704H22.22c.465 0 .841.315.841.704 0 .39-.376.705-.841.705H8.755c-.464 0-.841-.316-.841-.705zm5.508-2.817c0-.388.377-.704.841-.704h13.465c.465 0 .842.316.842.704 0 .39-.377.705-.842.705H14.264c-.465 0-.842-.316-.842-.705zm-2.926-.704c.475 0 .86.316.86.704 0 .39-.385.705-.86.705H8.774c-.475 0-.86-.316-.86-.705 0-.388.385-.704.86-.704z"/></g></g></svg>