<svg xmlns="http://www.w3.org/2000/svg" width="25" height="25" viewBox="0 0 25 25">
    <defs>
        <clipPath id="17i8a">
            <path fill="#fff" d="M12.5 25C19.404 25 25 19.404 25 12.5S19.404 0 12.5 0 0 5.596 0 12.5 5.596 25 12.5 25z"/>
        </clipPath>
    </defs>
    <g>
        <g>
            <g>
                <path fill="#f0f0f0" d="M12.5 25C19.404 25 25 19.404 25 12.5S19.404 0 12.5 0 0 5.596 0 12.5 5.596 25 12.5 25z"/>
                <path fill="none" stroke="#55acb2" stroke-miterlimit="50" stroke-width="2" d="M12.5 25C19.404 25 25 19.404 25 12.5S19.404 0 12.5 0 0 5.596 0 12.5 5.596 25 12.5 25z" clip-path="url(&quot;#17i8a&quot;)"/>
            </g>
            <g>
                <path fill="#0052b4" d="M3 18.167h19A11.008 11.008 0 0 1 19.43 21H5.57A11.01 11.01 0 0 1 3 18.167zM22 6.833H3A11.008 11.008 0 0 1 5.57 4h13.86A11.01 11.01 0 0 1 22 6.833zM15.295 12.5l1.397 2.361h-2.795L12.5 17.222l-1.397-2.36H8.308L9.705 12.5l-1.397-2.361h2.795L12.5 7.778l1.397 2.36h2.795zm-1.937-1.45h-1.716l-.859 1.45.859 1.45h1.717l.858-1.45zm-1.177-.911h.639l-.32-.54zm-1.937 1.45l.32-.54h-.64zm.32 2.361l-.32-.54-.32.54zm2.255.911h-.638l.319.54zm1.937-1.45l-.32.54h.64zm0-1.822l.32-.54h-.64z"/>
            </g>
        </g>
    </g>
</svg>