<svg xmlns="http://www.w3.org/2000/svg" width="36" height="50" viewBox="0 0 36 50"><defs><linearGradient id="5cbua" x1="0" x2="36" y1="50" y2="0" gradientUnits="userSpaceOnUse"><stop offset="0" stop-color="#4696dc"/><stop offset="1" stop-color="#82dae0"/></linearGradient></defs><g><g><path fill="url(#5cbua)" d="M36 5.722v41.056C36 48.556 34.528 50 32.717 50H3.283C1.472 50 0 48.556 0 46.778V5.722C0 3.944 1.472 2.5 3.283 2.5h6.906V.833c0-.444.396-.833.849-.833h13.924c.453 0 .85.389.85.833V2.5h6.905C34.528 2.5 36 3.944 36 5.722zM11.887 4.5h12.226V1.667H11.887zm22.358 42.278V5.722c0-.833-.679-1.5-1.528-1.5h-6.906V5.39c0 .444-.396.833-.849.833H11.038c-.453 0-.85-.389-.85-.833V4.222H3.284c-.849 0-1.528.667-1.528 1.5v41.056c0 .833.679 1.5 1.528 1.5h29.49c.85 0 1.529-.667 1.529-1.5zm-6.553-2.942c0 .365-.393.685-.842.685H4.997c-.45 0-.843-.32-.843-.685 0-.366.393-.685.843-.685H26.85c.45 0 .842.32.842.685zM4.154 39.704c0-.354.39-.663.834-.663h12.178c.5 0 .834.354.834.707 0 .354-.39.663-.834.663H4.988c-.5 0-.834-.354-.834-.707zm27.692-14.386c0 .45-.393.844-.842.844h-2.977l-1.63 3.04a.896.896 0 0 1-.786.45.956.956 0 0 1-.73-.563l-1.067-2.701-1.236 4.783c-.056.337-.393.619-.786.619-.394.056-.73-.225-.843-.563a119.28 119.28 0 0 0-1.404-4.164c-.169 1.069-.281 2.082-.337 2.42-.787 5.346-.9 5.514-.955 5.683a.896.896 0 0 1-.787.45h-.168c-.618-.112-.674-.562-.843-1.688-.112-.563-.224-1.407-.337-2.532-.224-1.857-.505-4.446-.898-7.653-.225-2.026-.45-4.052-.675-5.853L11.85 30.552c-.056.337-.393.619-.73.675-.393.056-.73-.112-.899-.45L7.805 26.05H4.996a.865.865 0 0 1-.842-.844c0-.45.393-.844.842-.844h3.315c.337 0 .617.169.786.45l1.573 3.039 3.314-15.532a.962.962 0 0 1 .899-.675c.393.056.73.394.786.788.562 5.064 1.348 11.76 1.91 16.432.337-2.476.674-4.84.674-5.234 0-.563.393-.844.73-.9.786-.113 1.011.45 1.46 1.688.225.619.506 1.52.9 2.589l.336 1.012 1.18-4.614c.112-.338.393-.619.786-.619.337 0 .73.225.843.563l1.404 3.432 1.011-1.857c.112-.28.393-.45.73-.45h3.483c.45 0 .73.394.73.844z"/></g></g></svg>