<svg xmlns="http://www.w3.org/2000/svg" width="15" height="15" viewBox="0 0 15 15"><defs><clipPath id="la8ea"><path d="M4.444 7.9l4.226 2.46a.469.469 0 0 0 .705-.404V5.034a.469.469 0 0 0-.705-.404L4.444 7.09a.467.467 0 0 0 0 .81zM7.5 0a7.5 7.5 0 1 1 0 15 7.5 7.5 0 0 1 0-15z"/></clipPath></defs><g><g><g><path fill="#f2f7fd" d="M4.444 7.9l4.226 2.46a.469.469 0 0 0 .705-.404V5.034a.469.469 0 0 0-.705-.404L4.444 7.09a.467.467 0 0 0 0 .81zM7.5 0a7.5 7.5 0 1 1 0 15 7.5 7.5 0 0 1 0-15z"/></g><g clip-path="url(#la8ea)"><path fill="#f2f7fd" d="M0 0h15v15H0z"/></g></g></g></svg>