<svg xmlns="http://www.w3.org/2000/svg" width="1366" height="915" viewBox="0 0 1366 915"><defs><mask id="wnn5b" width="2.01" height="2.02" x="-1.01" y="-1.01"><path fill="#fff" d="M-10-10h1386v910H-10z"/><path d="M1366 0H0v306.205s95.739 117.37 359.194 71.204C622.65 331.242 508.96 683.848 898.367 683.848 1287.774 683.848 1366 890 1366 890z"/></mask><filter id="wnn5a" width="1446" height="970" x="-40" y="-40" filterUnits="userSpaceOnUse"><feOffset in="SourceGraphic" result="FeOffset1740Out"/><feGaussianBlur in="FeOffset1740Out" result="FeGaussianBlur1741Out" stdDeviation="8 8"/></filter><linearGradient id="wnn5c" x1="1156.8" x2="300.82" y1="766.95" y2="213.33" gradientUnits="userSpaceOnUse"><stop offset="0" stop-color="#273f97"/><stop offset="1" stop-color="#2481de"/></linearGradient><mask id="wnn5e" width="2.01" height="2.02" x="-1.01" y="-1.01"><path fill="#fff" d="M-10-9h1386v831H-10z"/><path d="M1366 1H0v198s53.012 125.923 168.848 130.523c38.949 1.546 239.894 22.443 280.148 15.386 239.957-42.07 136.408 279.238 491.081 279.238C1294.751 624.147 1366 812 1366 812z"/></mask><filter id="wnn5d" width="1446" height="891" x="-40" y="-39" filterUnits="userSpaceOnUse"><feOffset in="SourceGraphic" result="FeOffset1759Out"/><feGaussianBlur in="FeOffset1759Out" result="FeGaussianBlur1760Out" stdDeviation="8 8"/></filter><linearGradient id="wnn5f" x1="1156.8" x2="300.82" y1="699.87" y2="195.4" gradientUnits="userSpaceOnUse"><stop offset="0" stop-color="#273f97"/><stop offset="1" stop-color="#2481de"/></linearGradient></defs><g><g><g filter="url(#wnn5a)"><path fill="none" stroke="#000" stroke-opacity=".1" stroke-width="20" d="M1366 0v0H0v306.205s95.739 117.37 359.194 71.204C622.65 331.242 508.96 683.848 898.367 683.848 1287.774 683.848 1366 890 1366 890v0z" mask="url(&quot;#wnn5b&quot;)"/><path fill-opacity=".1" d="M1366 0H0v306.205s95.739 117.37 359.194 71.204C622.65 331.242 508.96 683.848 898.367 683.848 1287.774 683.848 1366 890 1366 890z"/></g><path fill="url(#wnn5c)" d="M1366 0H0v306.205s95.739 117.37 359.194 71.204C622.65 331.242 508.96 683.848 898.367 683.848 1287.774 683.848 1366 890 1366 890z"/></g><g><g filter="url(#wnn5d)"><path fill="none" stroke="#000" stroke-opacity=".1" stroke-width="20" d="M1366 1v0H0v198s53.012 125.923 168.848 130.523c38.949 1.546 239.894 22.443 280.148 15.386 239.957-42.07 136.408 279.238 491.081 279.238C1294.751 624.147 1366 812 1366 812v0z" mask="url(&quot;#wnn5e&quot;)"/><path fill-opacity=".1" d="M1366 1H0v198s53.012 125.923 168.848 130.523c38.949 1.546 239.894 22.443 280.148 15.386 239.957-42.07 136.408 279.238 491.081 279.238C1294.751 624.147 1366 812 1366 812z"/></g><path fill="url(#wnn5f)" d="M1366 1H0v198s53.012 125.923 168.848 130.523c38.949 1.546 239.894 22.443 280.148 15.386 239.957-42.07 136.408 279.238 491.081 279.238C1294.751 624.147 1366 812 1366 812z"/></g></g></svg>